<svg width="18" height="18" viewBox="0 0 18 18" fill="none" xmlns="http://www.w3.org/2000/svg">
<path d="M9.00027 2.45459C7.22269 2.45459 6.9996 2.46236 6.30144 2.49414C5.60465 2.52604 5.12902 2.63636 4.71285 2.79823C4.28237 2.96541 3.9172 3.18904 3.55339 3.553C3.18931 3.91682 2.96568 4.282 2.79796 4.71236C2.63569 5.12868 2.52524 5.60445 2.49388 6.301C2.46265 6.99918 2.45447 7.22241 2.45447 9.00004C2.45447 10.7777 2.46238 11.0001 2.49401 11.6983C2.52606 12.3951 2.63637 12.8707 2.79809 13.2869C2.96541 13.7174 3.18904 14.0826 3.55298 14.4464C3.91665 14.8105 4.28182 15.0347 4.71204 15.2019C5.12848 15.3637 5.60424 15.474 6.3009 15.5059C6.99906 15.5377 7.222 15.5455 8.99945 15.5455C10.7772 15.5455 10.9996 15.5377 11.6977 15.5059C12.3945 15.474 12.8707 15.3637 13.2871 15.2019C13.7175 15.0347 14.0821 14.8105 14.4458 14.4464C14.8099 14.0826 15.0335 13.7174 15.2012 13.287C15.3621 12.8707 15.4726 12.3949 15.5053 11.6984C15.5367 11.0002 15.5448 10.7777 15.5448 9.00004C15.5448 7.22241 15.5367 6.99931 15.5053 6.30113C15.4726 5.60432 15.3621 5.12868 15.2012 4.7125C15.0335 4.282 14.8099 3.91682 14.4458 3.553C14.0817 3.18891 13.7176 2.96527 13.2867 2.79823C12.8695 2.63636 12.3936 2.52604 11.6968 2.49414C10.9986 2.46236 10.7764 2.45459 8.99822 2.45459H9.00027ZM8.41311 3.63413C8.58737 3.63386 8.78182 3.63413 9.00027 3.63413C10.7479 3.63413 10.955 3.64041 11.6451 3.67177C12.2833 3.70095 12.6296 3.80759 12.8603 3.89718C13.1658 4.01582 13.3835 4.15763 13.6125 4.38673C13.8416 4.61582 13.9834 4.834 14.1023 5.13945C14.1919 5.36991 14.2987 5.71627 14.3277 6.35445C14.3591 7.04445 14.3659 7.25172 14.3659 8.99854C14.3659 10.7454 14.3591 10.9526 14.3277 11.6426C14.2985 12.2808 14.1919 12.6272 14.1023 12.8576C13.9837 13.1631 13.8416 13.3806 13.6125 13.6095C13.3834 13.8386 13.1659 13.9804 12.8603 14.0991C12.6299 14.1891 12.2833 14.2954 11.6451 14.3246C10.9551 14.356 10.7479 14.3628 9.00027 14.3628C7.25255 14.3628 7.04542 14.356 6.35544 14.3246C5.71728 14.2952 5.37092 14.1885 5.14007 14.0989C4.83462 13.9803 4.61645 13.8385 4.38736 13.6094C4.15828 13.3803 4.01647 13.1627 3.89756 12.8571C3.80797 12.6266 3.7012 12.2803 3.67216 11.6421C3.6408 10.9521 3.63452 10.7448 3.63452 8.9969C3.63452 7.249 3.6408 7.04282 3.67216 6.35282C3.70134 5.71463 3.80797 5.36827 3.89756 5.13754C4.01619 4.83209 4.15828 4.61391 4.38736 4.38482C4.61645 4.15573 4.83462 4.01391 5.14007 3.895C5.37079 3.805 5.71728 3.69863 6.35544 3.66932C6.95924 3.64204 7.19323 3.63386 8.41311 3.6325V3.63413ZM12.4941 4.72095C12.0604 4.72095 11.7086 5.07236 11.7086 5.50613C11.7086 5.93977 12.0604 6.29159 12.4941 6.29159C12.9277 6.29159 13.2795 5.93977 13.2795 5.50613C13.2795 5.0725 12.9277 4.72068 12.4941 4.72068V4.72095ZM9.00027 5.63868C7.14401 5.63868 5.63901 7.14372 5.63901 9.00004C5.63901 10.8564 7.14401 12.3607 9.00027 12.3607C10.8565 12.3607 12.361 10.8564 12.361 9.00004C12.361 7.14372 10.8564 5.63868 9.00013 5.63868H9.00027ZM9.00027 6.81822C10.2051 6.81822 11.182 7.795 11.182 9.00004C11.182 10.2049 10.2051 11.1819 9.00027 11.1819C7.79526 11.1819 6.81852 10.2049 6.81852 9.00004C6.81852 7.795 7.79526 6.81822 9.00027 6.81822Z" fill="white"/>
</svg>
