<svg width="22" height="19" viewBox="0 0 22 19" fill="none" xmlns="http://www.w3.org/2000/svg">
<g clip-path="url(#clip0_1_1460)">
<path d="M20.9204 17.3729C20.9676 17.3734 21.0144 17.3642 21.0579 17.346C21.1014 17.3279 21.1406 17.301 21.1732 17.2672C21.2058 17.2334 21.231 17.1933 21.2473 17.1494C21.2635 17.1055 21.2705 17.0588 21.2678 17.0121C21.2678 16.7563 21.1119 16.634 20.7921 16.634H20.2753V17.9736H20.4696V17.3897H20.7085L20.714 17.3968L21.0846 17.9736H21.2925L20.8937 17.3766L20.9204 17.3729ZM20.6956 17.2387H20.4702V16.7859H20.7559C20.9035 16.7859 21.0717 16.8097 21.0717 17.0011C21.0717 17.2211 20.9015 17.2387 20.6944 17.2387" fill="#0A033C"/>
<path d="M15.8502 15.694H13.0939V11.42C13.0939 10.4008 13.0756 9.08882 11.6604 9.08882C10.2248 9.08882 10.0051 10.1993 10.0051 11.3458V15.6937H7.24881V6.90463H9.89488V8.10575H9.93192C10.1967 7.65744 10.5794 7.28864 11.0391 7.03863C11.4989 6.78861 12.0185 6.66675 12.5427 6.68602C15.3363 6.68602 15.8514 8.50546 15.8514 10.8724L15.8502 15.694ZM4.13878 5.70323C3.82242 5.70329 3.51314 5.61046 3.25007 5.43647C2.987 5.26249 2.78195 5.01518 2.66084 4.7258C2.53972 4.43643 2.50798 4.11799 2.56964 3.81076C2.6313 3.50353 2.7836 3.2213 3.00726 2.99976C3.23091 2.77823 3.5159 2.62734 3.82616 2.56617C4.13643 2.50501 4.45804 2.53632 4.75033 2.65614C5.04263 2.77596 5.29248 2.97891 5.46828 3.23933C5.64409 3.49974 5.73796 3.80593 5.73802 4.11917C5.73805 4.32716 5.69671 4.53311 5.61636 4.72528C5.53601 4.91744 5.41824 5.09206 5.26973 5.23915C5.12123 5.38625 4.94491 5.50294 4.75086 5.58256C4.55681 5.66219 4.34883 5.70319 4.13878 5.70323ZM5.51693 15.694H2.75775V6.90463H5.51693V15.694ZM17.2244 0.0012549H1.3727C1.01292 -0.00276533 0.666217 0.134812 0.408822 0.383756C0.151426 0.632699 0.00439102 0.972641 0 1.32888V17.0896C0.00424073 17.446 0.15119 17.7861 0.408576 18.0353C0.665963 18.2845 1.01274 18.4224 1.3727 18.4186H17.2244C17.5851 18.4231 17.9328 18.2856 18.1912 18.0364C18.4496 17.7872 18.5975 17.4467 18.6025 17.0896V1.32775C18.5974 0.970797 18.4494 0.630469 18.191 0.381531C17.9325 0.132594 17.5849 -0.00459043 17.2244 0.000117282" fill="#0A033C"/>
<path d="M20.7195 16.0372C20.3842 16.0404 20.0638 16.175 19.8283 16.4115C19.5929 16.648 19.4617 16.9671 19.4633 17.2992C19.4649 17.6313 19.5992 17.9492 19.837 18.1834C20.0747 18.4176 20.3964 18.5491 20.7317 18.5491C21.0671 18.5491 21.3888 18.4176 21.6265 18.1834C21.8642 17.9492 21.9986 17.6313 22.0002 17.2992C22.0018 16.9671 21.8706 16.648 21.6352 16.4115C21.3997 16.175 21.0793 16.0404 20.7439 16.0372H20.7195ZM20.7195 18.4053C20.4996 18.409 20.2835 18.3479 20.0986 18.2299C19.9136 18.112 19.7682 17.9423 19.6806 17.7425C19.5931 17.5427 19.5673 17.3216 19.6067 17.1073C19.646 16.893 19.7486 16.695 19.9016 16.5385C20.0545 16.3819 20.2509 16.2738 20.4659 16.2277C20.6809 16.1817 20.9049 16.1998 21.1095 16.2798C21.3141 16.3598 21.4902 16.4981 21.6155 16.6771C21.7407 16.8562 21.8095 17.068 21.8132 17.2858C21.8132 17.2921 21.8132 17.298 21.8132 17.3043C21.8193 17.59 21.7106 17.8664 21.511 18.0728C21.3113 18.2792 21.0371 18.3986 20.7485 18.4048H20.7198" fill="#0A033C"/>
</g>
<defs>
<clipPath id="clip0_1_1460">
<rect width="22" height="18.5714" fill="white"/>
</clipPath>
</defs>
</svg>
